<?xml version="1.0" encoding="utf-8"?>
<!-- Generator: Adobe Illustrator 24.1.2, SVG Export Plug-In . SVG Version: 6.00 Build 0)  -->
<svg version="1.1" id="Layer_1" xmlns="http://www.w3.org/2000/svg" xmlns:xlink="http://www.w3.org/1999/xlink" x="0px" y="0px"
	 viewBox="0 0 152 98" style="enable-background:new 0 0 152 98;" xml:space="preserve">
<style type="text/css">
	.st0{fill:#2C2C2C;}
</style>
<g>
	<path class="st0" d="M11.9,68h5.3l11.1,26.1h-6L20,88.3H9l-2.4,5.8H0.8L11.9,68z M17.9,83.2l-3.4-8.4l-3.4,8.4H17.9z"/>
	<path class="st0" d="M32.6,79h-2.3v-4.6h2.3v-1.3c0-2.1,0.5-3.7,1.6-4.8c1-1,2.6-1.6,4.5-1.6c0.9,0,1.6,0,2.3,0.1
		c0.6,0.1,1.2,0.2,1.7,0.4V72c-0.4-0.1-0.8-0.3-1.2-0.4s-0.8-0.1-1.3-0.1c-1.4,0-2,0.7-2,2.1v0.8h4.5V79h-4.5v15h-5.6V79z"/>
	<path class="st0" d="M45.8,74.2h5.6v4c0.6-1.4,1.3-2.4,2.3-3.3c1-0.8,2.3-1.2,4-1.1v5.9h-0.3c-1.9,0-3.3,0.6-4.4,1.7
		c-1.1,1.1-1.6,2.9-1.6,5.3V94h-5.6V74.2z"/>
	<path class="st0" d="M61.4,67.1h5.9v5h-5.9V67.1z M61.5,74.2h5.6V94h-5.6V74.2z"/>
	<path class="st0" d="M73,68.2h10.1c2,0,3.9,0.3,5.6,1s3.1,1.6,4.4,2.7s2.2,2.5,2.8,4.1c0.7,1.6,1,3.3,1,5.1v0.1
		c0,1.8-0.3,3.5-1,5.1s-1.6,2.9-2.8,4.1c-1.2,1.2-2.7,2.1-4.4,2.7c-1.7,0.7-3.5,1-5.6,1H73V68.2z M83.1,88.9c1.2,0,2.2-0.2,3.2-0.6
		s1.8-0.9,2.5-1.6s1.2-1.5,1.6-2.4s0.6-2,0.6-3.1v-0.1c0-1.1-0.2-2.2-0.6-3.1c-0.4-1-0.9-1.8-1.6-2.5s-1.5-1.2-2.5-1.6
		s-2-0.6-3.2-0.6h-4.4v15.6C78.7,88.9,83.1,88.9,83.1,88.9z"/>
	<path class="st0" d="M107.7,68h5.3l11,26.1h-6l-2.4-5.8h-10.9l-2.4,5.8h-5.8L107.7,68z M113.7,83.2l-3.4-8.4l-3.4,8.4H113.7z"/>
	<path class="st0" d="M137.4,94.5c-2,0-3.8-0.4-5.5-1.1s-3.1-1.7-4.3-2.8c-1.2-1.2-2.2-2.6-2.8-4.2c-0.7-1.6-1-3.3-1-5.2v-0.1
		c0-1.8,0.3-3.6,1-5.2s1.6-3,2.9-4.3c1.2-1.2,2.7-2.2,4.4-2.9c1.7-0.7,3.5-1.1,5.5-1.1s3.8,0.4,5.5,1.1s3.1,1.7,4.3,2.8
		c1.2,1.2,2.2,2.6,2.8,4.2c0.7,1.6,1,3.3,1,5.2V81c0,1.8-0.3,3.6-1,5.2s-1.6,3-2.9,4.3c-1.2,1.2-2.7,2.2-4.4,2.9
		C141.3,94.2,139.4,94.5,137.4,94.5z M137.5,89.3c1.1,0,2.2-0.2,3.1-0.6c1-0.4,1.8-1,2.5-1.7s1.2-1.6,1.6-2.6c0.4-1,0.6-2,0.6-3.1
		v-0.1c0-1.1-0.2-2.2-0.6-3.1c-0.4-1-0.9-1.8-1.6-2.6c-0.7-0.7-1.5-1.3-2.5-1.8c-1-0.4-2-0.6-3.1-0.6c-1.2,0-2.2,0.2-3.2,0.6
		c-0.9,0.4-1.8,1-2.4,1.7c-0.7,0.7-1.2,1.6-1.6,2.6c-0.4,1-0.6,2-0.6,3.1v0.1c0,1.1,0.2,2.2,0.6,3.1s0.9,1.8,1.6,2.6
		c0.7,0.7,1.5,1.3,2.5,1.8C135.3,89,136.4,89.3,137.5,89.3z"/>
</g>
<g>
	<g>
		<path class="st0" d="M75.8,3c3.6,0,7,1.4,9.7,3.9c2.9,2.7,4.5,6.6,4.5,10.5v14.3c0,3.7-1.4,7.1-4.1,9.6c-2.6,2.5-6.1,3.9-9.7,3.8
			c-7-0.2-12.8-6-13-13c-0.1-3.7,1.2-7.1,3.8-9.7c2.5-2.6,6-4.1,9.6-4.1c1.1,0,2,0.9,2,2s-0.9,2-2,2c-2.6,0-5,1-6.8,2.9
			C68,26.9,67,29.4,67.1,32c0.1,5,4.3,9.1,9.2,9.2c2.6,0.1,5-0.9,6.9-2.7s2.9-4.2,2.9-6.8V17.4c0-2.9-1.2-5.7-3.3-7.7
			c-2.1-2-4.7-2.9-7.5-2.8H75C62.6,7.7,52.4,18.1,51.8,30.5C51.5,37.6,54,44.2,59,49.2s11.6,7.6,18.7,7.2
			c12.4-0.6,22.7-10.7,23.6-23c0.3-4.2-0.5-8.4-2.2-12.1c-0.5-1,0-2.1,1-2.6s2.1,0,2.6,1c2,4.3,2.9,9.2,2.6,14
			c-1,14.3-13,26-27.3,26.6c-8.1,0.4-15.9-2.7-21.6-8.4S47.7,38.3,48,30.3C48.6,15.9,60.3,3.9,74.7,3H75C75.3,3,75.5,3,75.8,3z"/>
	</g>
</g>
</svg>
